<?xml version="1.0" encoding="utf-8"?>
<!-- Generator: Adobe Illustrator 27.8.0, SVG Export Plug-In . SVG Version: 6.00 Build 0)  -->
<svg version="1.1" id="Layer_1" xmlns="http://www.w3.org/2000/svg" xmlns:xlink="http://www.w3.org/1999/xlink" x="0px" y="0px"
	 viewBox="0 0 138.6 92.4" style="enable-background:new 0 0 138.6 92.4;" xml:space="preserve">
<style type="text/css">
	.st0{fill-rule:evenodd;clip-rule:evenodd;fill:#6AA727;}
	.st1{fill-rule:evenodd;clip-rule:evenodd;fill:#F3DE3A;}
	.st2{fill-rule:evenodd;clip-rule:evenodd;fill:#EBEBEB;}
	.st3{fill-rule:evenodd;clip-rule:evenodd;fill:#1D3191;}
	.st4{fill-rule:evenodd;clip-rule:evenodd;fill:#5F9724;}
</style>
<g>
	<g>
		<rect x="0" y="0.1" class="st0" width="138.6" height="92.4"/>
		<polygon class="st1" points="12.3,46.2 69.2,10.9 126.4,46.2 69.3,81.3 		"/>
		<path class="st2" d="M69.2,70.1c13.2,0,23.9-10.5,23.9-23.3c0-12.8-10.7-23.3-23.9-23.3c-13.2,0-23.9,10.5-23.9,23.3
			C45.2,59.6,56,70.1,69.2,70.1z"/>
		<path class="st3" d="M69.2,23.5c12.9,0,23.5,10,23.9,22.5c-9.9-5.9-21.6-9.3-34-9.3c-4.1,0-8.1,0.4-12,1.1
			C50.7,29.4,59.2,23.5,69.2,23.5z M92.5,51.8c-9.6-6.2-21.1-9.9-33.4-9.9c-4.7,0-9.2,0.5-13.6,1.5c-0.2,1.1-0.3,2.2-0.3,3.4
			c0,12.9,10.7,23.3,23.9,23.3C80.6,70.1,90.2,62.2,92.5,51.8z"/>
		<path class="st4" d="M51.6,39.9c0,0.4-0.1,0.7-0.3,1c-0.2,0.3-0.5,0.4-0.8,0.4c-0.3,0-0.6-0.1-0.8-0.3c-0.2-0.2-0.4-0.5-0.4-0.8
			c0-0.4,0.1-0.7,0.3-1c0.2-0.3,0.5-0.4,0.8-0.4c0.3,0,0.6,0.1,0.8,0.3C51.5,39.3,51.6,39.5,51.6,39.9z M51.1,40
			c0-0.3-0.1-0.5-0.2-0.6c-0.1-0.1-0.3-0.2-0.5-0.2c-0.2,0-0.3,0.1-0.4,0.3c-0.1,0.2-0.2,0.4-0.1,0.6c0,0.3,0.1,0.5,0.2,0.6
			c0.1,0.2,0.3,0.2,0.5,0.2c0.2,0,0.3-0.1,0.4-0.3C51.1,40.4,51.1,40.2,51.1,40z M54,40.9l-0.5,0.1c-0.2-0.4-0.3-0.7-0.4-0.8
			C53,40.1,52.9,40,52.7,40c-0.1,0-0.1,0-0.2,0c0,0.3,0.1,0.6,0.1,1l-0.5,0.1c0-0.4-0.1-0.8-0.1-1.3c0-0.4-0.1-0.8-0.1-1.1l0.3,0
			c0,0,0.1,0,0.2,0c0.1,0,0.2,0,0.3,0c0.6-0.1,0.9,0.1,0.9,0.5c0,0.3-0.1,0.5-0.4,0.7l0,0c0.1,0,0.2,0.1,0.4,0.3
			C53.7,40.2,53.8,40.5,54,40.9z M53.2,39.2c0-0.2-0.2-0.3-0.5-0.3c-0.1,0-0.2,0-0.3,0.1c0,0.2,0.1,0.4,0.1,0.7c0.1,0,0.1,0,0.2,0
			C53,39.7,53.2,39.5,53.2,39.2z M56.3,39.4c0,0.3-0.1,0.7-0.3,0.9c-0.2,0.3-0.5,0.4-0.9,0.5c-0.2,0-0.4,0-0.7,0
			c0-0.4,0-0.8-0.1-1.3c0-0.4-0.1-0.8-0.1-1.1l0.3,0c0.1,0,0.1,0,0.2,0c0.1,0,0.2,0,0.2,0c0.4,0,0.8,0.1,1,0.3
			C56.1,38.9,56.2,39.1,56.3,39.4z M55.8,39.6c0-0.2-0.1-0.4-0.2-0.6c-0.1-0.2-0.4-0.2-0.6-0.2c-0.1,0-0.1,0-0.2,0
			c0,0.2,0.1,0.5,0.1,0.8c0,0.3,0,0.6,0.1,0.9c0.1,0,0.2,0,0.2,0c0.3,0,0.4-0.1,0.6-0.3C55.7,40,55.8,39.8,55.8,39.6z M58.3,40.2
			l0,0.4l-1.6,0.1c0-0.4,0-0.8,0-1.3c0-0.4,0-0.8-0.1-1.1l1.5-0.1l0,0.4c-0.4,0-0.7,0-1,0c0,0.2,0,0.4,0,0.6c0.3,0,0.5,0,0.8-0.1
			l0,0.4c-0.3,0-0.6,0-0.8,0c0,0.2,0,0.5,0,0.7C57.5,40.3,57.9,40.3,58.3,40.2z M61.4,40.6l-0.5,0c0-0.2,0-0.6,0-1.1
			c0-0.5,0-0.8,0-0.9h0c0,0.1,0,0.2-0.1,0.4c-0.1,0.2-0.1,0.5-0.3,0.9c-0.1,0.4-0.2,0.6-0.2,0.7l-0.4,0c0-0.1-0.1-0.3-0.2-0.7
			c-0.1-0.4-0.2-0.7-0.3-0.8c0-0.2-0.1-0.3-0.1-0.5h0c0,0.2,0,0.5,0,1c0,0.5,0,0.8,0,1l-0.5,0c0,0,0-0.4,0.1-1.1
			c0.1-0.7,0.1-1.1,0.1-1.3l0.7,0c0,0.1,0.1,0.4,0.2,0.9c0.2,0.5,0.2,0.8,0.2,0.9h0c0-0.1,0.1-0.4,0.3-0.9c0.2-0.5,0.3-0.8,0.3-0.9
			l0.7,0c0,0.3,0,0.7,0.1,1.4C61.4,40.3,61.4,40.6,61.4,40.6z M66.9,40.6l0,0.4l-1.6-0.1c0-0.4,0.1-0.8,0.1-1.3
			c0-0.4,0.1-0.8,0.1-1.1l1.5,0.1L66.9,39c-0.4,0-0.7-0.1-1-0.1c0,0.2,0,0.4,0,0.6c0.3,0,0.5,0,0.8,0l0,0.4c-0.3,0-0.6-0.1-0.8-0.1
			c0,0.2,0,0.5,0,0.7C66.2,40.6,66.5,40.6,66.9,40.6z M72.3,40c-0.1,0.3-0.2,0.5-0.4,0.6c-0.2,0.1-0.5,0.1-0.8,0.1
			c-0.1,0-0.1,0-0.1,0c0,0.2-0.1,0.5-0.1,0.9l-0.5-0.1c0.1-0.3,0.2-0.8,0.2-1.2c0.1-0.4,0.1-0.8,0.2-1.1l0.3,0.1c0,0,0.1,0,0.3,0
			c0.1,0,0.2,0,0.3,0.1c0.2,0,0.4,0.1,0.5,0.3C72.3,39.6,72.4,39.8,72.3,40z M71.8,40c0-0.3-0.1-0.4-0.4-0.5c-0.1,0-0.2,0-0.3,0
			c0,0.2-0.1,0.5-0.1,0.8c0,0,0.1,0,0.1,0C71.5,40.4,71.8,40.3,71.8,40z M74.2,42.2c-0.1-0.4-0.1-0.8-0.2-0.9
			c-0.1-0.2-0.1-0.3-0.3-0.4l0,0c0.3,0,0.5-0.2,0.6-0.5c0.1-0.4-0.1-0.6-0.7-0.8c-0.1,0-0.2,0-0.3-0.1c-0.1,0-0.2,0-0.2,0l-0.3-0.1
			c-0.1,0.3-0.1,0.7-0.2,1.1c-0.1,0.5-0.2,0.9-0.3,1.2l0.5,0.1c0.1-0.3,0.1-0.6,0.2-0.9c0.1,0,0.1,0,0.2,0c0.2,0,0.3,0.1,0.3,0.2
			c0.1,0.1,0.1,0.4,0.1,0.9L74.2,42.2z M73.9,40.4c-0.1,0.3-0.3,0.4-0.7,0.3c0,0-0.1,0-0.2,0c0.1-0.3,0.1-0.5,0.1-0.7
			c0.1,0,0.2,0,0.3,0C73.8,40,73.9,40.2,73.9,40.4z M76.9,41.6c-0.1,0.4-0.3,0.6-0.6,0.8c-0.3,0.2-0.6,0.2-0.9,0.2
			c-0.3-0.1-0.5-0.3-0.7-0.5c-0.2-0.3-0.2-0.6-0.1-0.9c0.1-0.4,0.3-0.6,0.6-0.8c0.3-0.2,0.6-0.2,0.9-0.2c0.3,0.1,0.5,0.3,0.7,0.5
			C77,40.9,77,41.2,76.9,41.6z M76.4,41.5c0.1-0.2,0-0.5,0-0.7c-0.1-0.2-0.2-0.3-0.4-0.4c-0.2,0-0.3,0-0.5,0.1
			c-0.2,0.1-0.3,0.3-0.3,0.5c-0.1,0.2,0,0.5,0,0.7c0.1,0.2,0.2,0.3,0.4,0.4c0.2,0,0.3,0,0.5-0.1C76.2,41.9,76.4,41.7,76.4,41.5z
			 M78.9,43.5c-0.3,0-0.5-0.1-0.7-0.1c-0.4-0.1-0.7-0.3-0.8-0.6c-0.1-0.3-0.2-0.6-0.1-0.9c0.1-0.3,0.3-0.6,0.6-0.8
			c0.3-0.2,0.7-0.2,1.1-0.1c0.2,0.1,0.3,0.1,0.5,0.2l-0.2,0.4c-0.2-0.1-0.3-0.2-0.5-0.2c-0.2-0.1-0.5-0.1-0.6,0.1
			c-0.2,0.1-0.3,0.3-0.4,0.5c-0.1,0.2-0.1,0.4,0,0.7c0.1,0.2,0.2,0.4,0.5,0.4c0.1,0,0.1,0,0.2,0.1c0-0.1,0.1-0.3,0.1-0.4
			c0-0.1,0.1-0.3,0.1-0.4l0.5,0.2c-0.1,0.2-0.1,0.4-0.2,0.5C79,43.1,79,43.2,78.9,43.5z M81.1,44.4c0-0.5,0-0.8-0.1-1
			c0-0.2-0.1-0.3-0.2-0.4l0,0c0.3,0,0.6-0.2,0.7-0.4c0.1-0.4-0.1-0.6-0.6-0.8c-0.1,0-0.2-0.1-0.3-0.1c-0.1,0-0.2-0.1-0.2-0.1
			l-0.3-0.1c-0.1,0.3-0.2,0.7-0.4,1.1c-0.2,0.4-0.3,0.8-0.4,1.2l0.5,0.2c0.1-0.3,0.2-0.6,0.3-0.9c0.1,0,0.1,0,0.2,0.1
			c0.2,0.1,0.3,0.1,0.3,0.3c0,0.1,0.1,0.4,0,0.9L81.1,44.4z M81,42.5c-0.1,0.3-0.3,0.3-0.7,0.2c0,0-0.1,0-0.2-0.1
			c0.1-0.3,0.2-0.5,0.2-0.7c0.1,0,0.2,0,0.3,0.1C81,42.1,81.1,42.3,81,42.5z M83,44.7l-0.2,0.4l-1.5-0.6c0.1-0.3,0.3-0.7,0.5-1.2
			c0.2-0.4,0.3-0.8,0.4-1.1l1.4,0.5l-0.2,0.4c-0.3-0.2-0.6-0.3-0.9-0.4c-0.1,0.2-0.1,0.4-0.2,0.6c0.2,0.1,0.5,0.2,0.8,0.3L83,44
			c-0.3-0.1-0.5-0.2-0.8-0.3c-0.1,0.2-0.2,0.5-0.2,0.7C82.3,44.5,82.7,44.6,83,44.7z M85,45.3c0.1-0.2,0.1-0.4,0-0.5
			c-0.1-0.1-0.2-0.3-0.3-0.4c-0.2-0.1-0.3-0.3-0.3-0.3c0-0.1-0.1-0.1,0-0.2c0.1-0.1,0.2-0.2,0.5-0.1c0.2,0.1,0.3,0.2,0.5,0.3
			l0.2-0.4c-0.1-0.1-0.3-0.2-0.5-0.3c-0.3-0.1-0.5-0.1-0.7-0.1c-0.2,0.1-0.3,0.2-0.4,0.4c-0.1,0.2-0.1,0.3,0,0.5
			c0.1,0.1,0.2,0.3,0.3,0.4c0.2,0.2,0.3,0.3,0.3,0.4c0.1,0.1,0.1,0.2,0,0.3c0,0.1-0.1,0.1-0.2,0.1s-0.2,0-0.4-0.1
			c-0.2-0.1-0.3-0.2-0.5-0.3l-0.2,0.4c0.2,0.1,0.4,0.2,0.6,0.3C84.4,45.8,84.8,45.7,85,45.3z M86.8,46.1c-0.2,0.4-0.6,0.5-1.2,0.3
			c-0.2-0.1-0.4-0.2-0.6-0.3l0.2-0.3c0.2,0.1,0.3,0.2,0.5,0.3c0.2,0.1,0.3,0.1,0.4,0.1c0.1,0,0.2,0,0.2-0.1c0-0.1,0-0.2,0-0.3
			c0-0.1-0.1-0.2-0.3-0.4c-0.1-0.2-0.2-0.3-0.3-0.4c-0.1-0.2-0.1-0.3,0-0.5c0.1-0.2,0.2-0.3,0.4-0.4c0.2,0,0.4,0,0.7,0.1
			c0.2,0.1,0.4,0.2,0.5,0.3l-0.2,0.4c-0.1-0.1-0.3-0.2-0.5-0.3c-0.3-0.1-0.4-0.1-0.5,0c0,0.1,0,0.2,0,0.2c0,0.1,0.1,0.2,0.3,0.3
			c0.2,0.2,0.3,0.3,0.3,0.4C86.9,45.7,86.9,45.9,86.8,46.1z M89.4,46.8c0.2-0.3,0.2-0.6,0.1-0.9c-0.1-0.3-0.3-0.5-0.6-0.7
			C88.7,45,88.4,45,88,45.1c-0.3,0.1-0.6,0.3-0.7,0.7c-0.2,0.3-0.2,0.6-0.1,0.9c0.1,0.3,0.3,0.5,0.6,0.7c0.3,0.2,0.6,0.2,0.9,0.1
			C89,47.3,89.2,47.1,89.4,46.8z M88.9,46.6c-0.1,0.2-0.3,0.4-0.4,0.5c-0.2,0.1-0.4,0.1-0.5,0c-0.2-0.1-0.3-0.2-0.3-0.4
			c0-0.2,0-0.4,0.1-0.6c0.1-0.2,0.3-0.4,0.4-0.5c0.2-0.1,0.4-0.1,0.5,0c0.2,0.1,0.3,0.2,0.3,0.4C89.1,46.2,89.1,46.4,88.9,46.6z"/>
		<path class="st2" d="M83.9,58.2l0.3-1.1l-0.9-0.6l1.2-0.1l0.4-1l0.4,1l1.1,0.1l-0.9,0.7l0.3,1.1l-1-0.6L83.9,58.2z M46.4,47.4
			l0.3-1.1l-0.9-0.6l1.2-0.1l0.4-1l0.4,1l1.1,0.1l-0.9,0.7l0.3,1.1l-1-0.6L46.4,47.4z M48,54.9l0.2-0.7l-0.5-0.4l0.7-0.1l0.2-0.6
			l0.2,0.6l0.6,0l-0.5,0.4l0.2,0.6l-0.6-0.3L48,54.9z M50.1,53.6l0.3-1.1l-0.9-0.6l1.2-0.1l0.4-1l0.4,1l1.1,0.1l-0.9,0.7l0.3,1.1
			l-1-0.6L50.1,53.6z M53.2,51.2l0.1-0.5l-0.4-0.3l0.5,0l0.2-0.4l0.2,0.5l0.5,0l-0.4,0.3l0.1,0.5l-0.4-0.3L53.2,51.2z M56,55.1
			l0.2-0.7l-0.5-0.4l0.7-0.1l0.2-0.6l0.2,0.6l0.6,0l-0.5,0.4l0.2,0.6l-0.6-0.3L56,55.1z M55.2,57.7l0.2-0.7l-0.5-0.4l0.7-0.1
			l0.2-0.6l0.2,0.6l0.6,0L56.1,57l0.2,0.6l-0.6-0.3L55.2,57.7z M58.5,60.3l0.3-1.1l-0.9-0.6l1.2-0.1l0.4-1l0.4,1l1.1,0.1l-0.9,0.7
			l0.3,1.1l-1-0.6L58.5,60.3z M61.1,50.8l0.3-1.1L60.4,49l1.2-0.1l0.4-1l0.4,1l1.1,0.1l-0.9,0.7l0.3,1.1l-1-0.6L61.1,50.8z
			 M66.6,55.5l0.3-1.1l-0.9-0.6l1.2-0.1l0.4-1l0.4,1l1.1,0.1l-0.9,0.7l0.3,1.1l-1-0.6L66.6,55.5z M69.1,52.6l0.3-1.1l-0.9-0.6
			l1.2-0.1l0.4-1l0.4,1l1.1,0.1l-0.9,0.7l0.3,1.1l-1-0.6L69.1,52.6z M69.6,56.9l0.1-0.5l-0.4-0.3l0.5,0l0.2-0.4l0.2,0.5l0.5,0
			l-0.4,0.3l0.1,0.5L70,56.6L69.6,56.9z M70,59.1l0.2-0.7l-0.5-0.4l0.7-0.1l0.2-0.6l0.2,0.6l0.6,0l-0.5,0.4L71,59l-0.6-0.3L70,59.1z
			 M69.6,64.3l0.2-0.7l-0.5-0.4l0.7-0.1l0.2-0.6l0.2,0.6l0.6,0l-0.5,0.4l0.2,0.6l-0.6-0.3L69.6,64.3z M72.3,55.6l0.3-1.1l-0.9-0.6
			l1.2-0.1l0.4-1l0.4,1l1.1,0.1l-0.9,0.7l0.3,1.1l-1-0.6L72.3,55.6z M76.5,47.3l0.2-0.7l-0.5-0.4l0.7-0.1l0.2-0.6l0.2,0.6l0.6,0
			l-0.5,0.4l0.2,0.6L77,46.9L76.5,47.3z M75.7,61.2l0.1-0.5l-0.4-0.3l0.5,0l0.2-0.4l0.2,0.5l0.5,0l-0.4,0.3l0.1,0.5l-0.4-0.3
			L75.7,61.2z M77,63.3l0.1-0.5l-0.4-0.3l0.5,0l0.2-0.4l0.2,0.5l0.5,0l-0.4,0.3l0.1,0.5L77.4,63L77,63.3z M78.5,62l0.1-0.5l-0.4-0.3
			l0.5,0l0.2-0.4l0.2,0.5l0.5,0l-0.4,0.3l0.1,0.5l-0.4-0.3L78.5,62z M78.8,39.1l0.3-1.1l-0.9-0.6l1.2-0.1l0.4-1l0.4,1l1.1,0.1
			L80.4,38l0.3,1.1l-1-0.6L78.8,39.1z M80.6,63l0.1-0.5l-0.4-0.3l0.5,0l0.1-0.4l0.2,0.4l0.4,0l-0.4,0.3l0.1,0.4l-0.4-0.2L80.6,63z
			 M81.9,64.1l0.1-0.4l-0.3-0.2l0.4,0l0.1-0.3l0.1,0.3l0.4,0l-0.3,0.2l0.1,0.4l-0.3-0.2L81.9,64.1z M82,61.6l0.1-0.4L81.8,61l0.4,0
			l0.1-0.3l0.1,0.3l0.4,0l-0.3,0.2l0.1,0.4l-0.3-0.2L82,61.6z M83.8,61.4l0.1-0.4l-0.3-0.2l0.4,0l0.1-0.3l0.1,0.3l0.4,0L84.3,61
			l0.1,0.4l-0.3-0.2L83.8,61.4z M85.1,59.9l0.1-0.5l-0.4-0.3l0.5,0l0.2-0.4l0.2,0.5l0.5,0l-0.4,0.3l0.1,0.5l-0.4-0.3L85.1,59.9z
			 M86,61.3l0.1-0.5l-0.4-0.3l0.5,0l0.2-0.4l0.2,0.5l0.5,0l-0.4,0.3l0.1,0.5L86.4,61L86,61.3z M87.9,56.8l0.2-0.7l-0.5-0.4l0.7-0.1
			l0.2-0.6l0.2,0.6l0.6,0l-0.5,0.4l0.2,0.6l-0.6-0.3L87.9,56.8z"/>
	</g>
</g>
</svg>
