<?xml version="1.0" encoding="utf-8"?>
<!-- Generator: Adobe Illustrator 27.8.0, SVG Export Plug-In . SVG Version: 6.00 Build 0)  -->
<svg version="1.1" id="Layer_1" xmlns="http://www.w3.org/2000/svg" xmlns:xlink="http://www.w3.org/1999/xlink" x="0px" y="0px"
	 viewBox="0 0 138.6 92.4" style="enable-background:new 0 0 138.6 92.4;" xml:space="preserve">
<style type="text/css">
	.st0{fill:#F3DE3A;}
	.st1{fill:#161616;}
	.st2{fill:#FFFFFF;}
	.st3{fill:#C9012A;}
	.st4{fill:#F2D231;}
</style>
<g>
	<g>
		<g>
			<polygon class="st0" points="0.3,92.4 138.7,92.4 138.7,86 0.3,47.5 			"/>
			<polygon class="st0" points="0.3,0 0.3,6.4 138.7,44.9 138.7,0 			"/>
			<polygon class="st1" points="0.3,47.5 138.7,86 138.7,66.7 0.3,28.2 			"/>
			<polygon class="st2" points="0.3,28.2 138.7,66.7 138.7,44.9 0.3,6.4 			"/>
		</g>
		<g>
			<path class="st3" d="M46.6,60c2.2,0,2.9-0.8,3.1-0.2c0.3,0.7-1.8,1.1-3.1,1.1c-1.4,0-3.3-0.7-3.1-1.3C43.8,59,44.3,60,46.6,60z
				 M65.3,58.1c-0.4,0.1,0.6,1.5,1.3,2.1c0.9,0.8,2,1.1,3.1,1.1c1.1,0.1,2.2-0.3,3.1-1.1c0.7-0.6,1.6-2,1.3-2.1
				c-0.1,0-1.1,0.5-1.4,0.7c-0.5,0.3-1,1-1.6,1.2c-0.7,0.2-0.4-0.7-0.4-1.1c0-0.9-0.4-1.5-1-1.5c0,0,0,0,0,0c0,0,0,0,0,0
				c-0.6,0.1-1,0.6-1,1.5c0,0.4,0.4,1.3-0.4,1.1c-0.6-0.2-1.1-0.8-1.6-1.2C66.4,58.6,65.4,58.1,65.3,58.1z M69.6,41.8
				C69.6,41.8,69.6,41.8,69.6,41.8L69.6,41.8c-0.4,0.2-0.2,1.2-0.8,1c-0.3-0.1-0.9-0.9-1.3-0.7c-0.2,0.2,0,0.6,0.2,0.9
				c1.1,1.3,0.8,2.1,0.3,3.6c-0.3,0.8-0.8,3.1,0.3,3.6c0.6,0.3,0.9-0.9,1.4-1c0.5,0.1,0.7,1.3,1.4,1c1.1-0.5,0.6-2.8,0.3-3.6
				c-0.5-1.5-0.8-2.3,0.3-3.6c0.2-0.2,0.4-0.7,0.2-0.9c-0.4-0.3-1,0.6-1.3,0.7C69.8,43,70,42,69.6,41.8L69.6,41.8
				C69.7,41.8,69.7,41.8,69.6,41.8z M69.6,67.9C69.6,67.9,69.6,67.9,69.6,67.9C69.7,67.9,69.7,67.9,69.6,67.9
				c10,0,18.8-8.9,17.3-21.4c-0.3-2.8-1.4-5.8-3.4-7.8c3.5,7.8,0,17.5-7.3,21.3c-2.2,1.2-4.5,1.7-6.6,1.6c-2.2,0-4.4-0.5-6.6-1.6
				c-7.3-3.8-10.8-13.4-7.3-21.3c-2,2-3,4.9-3.4,7.8C50.9,59,59.7,68,69.6,67.9z M56.6,36.7c0.9,0.1,1.7-0.3,2.5-0.7
				c0,0,2.9-1.4,2.8-0.8c0,0.2-2.5,1-3.1,1.3c-0.4,0.2-2,0.5-2,0.9c0,0.2,0.9,2.1,3.6,0.1c0.4-0.3,2.7-1.8,3.1-1.1
				c0.1,0.2-0.9,0.3-1.6,0.8c-1.3,0.8-2.5,1.2-2.5,1.6c0,0.3,1.2,1.9,3.6-0.2c1.6-1.4,2.4-1.6,2.4-1.4c0,0.6-3.1,2.2-3.2,2.6
				c-0.2,0.6,1.3,1.9,3.7-0.4c0.1-0.1,1.8-2,2-1.9c0.2,0.2-1.2,1.3-0.4,2.1c0.3,0.3,0.6-0.4,0.9-0.1c0.2,0.3-0.3,0.8-0.3,1.6
				c0,0.4,0.4,1,0.8,1.1c0.3,0.1,0.5-0.7,0.9-0.8c0.4,0.1,0.6,0.9,0.9,0.8c0.4-0.1,0.8-0.7,0.8-1.1c0-0.8-0.6-1.3-0.3-1.6
				c0.3-0.3,0.5,0.4,0.9,0.1c0.8-0.9-0.5-1.9-0.4-2.1c0.1-0.1,1.8,1.7,2,1.9c2.3,2.3,3.8,1,3.7,0.4c-0.1-0.3-3.2-2-3.2-2.6
				c0-0.2,0.8,0,2.4,1.4c2.3,2.1,3.6,0.5,3.6,0.2c-0.1-0.4-1.3-0.9-2.5-1.6c-0.8-0.5-1.7-0.6-1.6-0.8c0.4-0.7,2.7,0.8,3.1,1.1
				c2.7,2,3.6,0.1,3.6-0.1c0-0.4-1.5-0.7-2-0.9c-0.6-0.3-3-1.1-3.1-1.3c-0.1-0.6,2.8,0.8,2.8,0.8c0.8,0.4,1.6,0.8,2.5,0.7
				c1.1-0.1,2-0.8,2.4-1.9c0.3-0.8,0.2-0.3-2.1-0.3c-4.3,0-5.2-4.2-10.1-3.5c-1.2,0.2-1.9,0.8-2.8,1.6c0-1,0-2,0-2.9
				C70,29.9,69.8,30,69.6,30c-0.2,0-0.4-0.1-0.5-0.3c0,1,0,2,0,2.9c-0.9-0.8-1.6-1.4-2.8-1.6c-4.8-0.6-5.7,3.5-10.1,3.5
				c-2.3,0-2.4-0.5-2.1,0.3C54.6,35.9,55.5,36.7,56.6,36.7z M69.6,26.5L69.6,26.5C69.6,26.5,69.6,26.5,69.6,26.5
				C69.7,26.5,69.7,26.5,69.6,26.5C69.7,26.5,69.7,26.5,69.6,26.5c2.1,0,5.6-1.5,0.6-1.5c0,0.5-0.3,0.8-0.5,0.8
				c-0.3,0-0.5-0.3-0.5-0.8C64.1,25,67.6,26.4,69.6,26.5z M67,58c0.1,0.3,0.5,1.1,0.8,1.2c0.4,0.2,0.5-0.6,0.5-1
				c0.2-1.3,0.9-1.5,1.3-1.5c0.4,0,1.1,0.2,1.3,1.5c0.1,0.4,0.1,1.2,0.5,1c0.3-0.1,0.7-0.9,0.8-1.2c0.8-2.3-1.4-4.6-0.8-6.7
				c0.1-0.3,1-1.5,0-1c-0.2,0.1-0.7,0.7-0.9,0.7c-0.4,0-0.4-1.1-0.8-1.3v0c0,0,0,0,0,0c0,0,0,0,0,0v0c-0.5,0.1-0.4,1.2-0.8,1.3
				c-0.2,0-0.7-0.6-0.9-0.7c-1-0.5-0.1,0.8,0,1C68.5,53.4,66.2,55.7,67,58z M44.3,58.2c-0.3,0-0.4,0.2-0.4,0.4
				c0.1,0.5,1.3,1.1,2.8,1.1c1.7,0,3.1-0.7,2.7-1.3c-0.3-0.4-0.4,0.4-2.7,0.4C45.5,58.8,44.9,58.4,44.3,58.2z M67.6,29.9
				c0.3-0.4,0.7-0.8,1-1.2c0.4,0.5,0.7,0.8,1,0.9v0c0,0,0,0,0,0c0,0,0,0,0,0v0c0.3-0.1,0.5-0.4,1-0.9c0.3,0.4,0.7,0.8,1,1.2
				c0.3-0.4,0.6-0.8,1-1.2c0.5,0.4,0.9,0.9,1.4,1.3c-0.6-1.4-1-2.7-1.1-4.2c-0.8,0.7-2,1-3.2,1c0,0,0,0,0,0c0,0,0,0,0,0
				c-1.2,0-2.4-0.3-3.2-1c-0.1,1.5-0.5,2.9-1.1,4.2c0.5-0.4,0.9-0.9,1.4-1.3C67,29.1,67.3,29.5,67.6,29.9z M50,61.1
				c0-0.8-0.7,0.2-3.4,0.3c-2.2,0-3.2-1.2-3.4-0.6c-0.1,0.6,1.2,1.4,3.3,1.4C48.2,62.2,50,61.7,50,61.1z M44.4,54.5
				c0,2.4-0.2,2.9,0,3.2c0.3,0.5,2.7,1.2,4.2,0.4c0.7-0.4,0.4-1.2,0.4-1.9c-0.2-12.9,0.7-7.7-3.2-12.3c-0.4-0.5-0.8-1.3-1.4-1.5
				c-2-0.6,1.9,4.1,0.7,4.8c-0.5-0.9-1.3-1.3-2.1-1.8c-1-0.6-0.9-1.3-1.3-2.3c-0.2-0.5-0.6-0.9-0.8-1.4c-0.1-0.3,0-0.9-0.1-1.3
				c-0.1-0.5-0.4-1.8-0.9-1.7c-0.5,0.2-0.2,1.3-0.1,1.8c0.4,4.5,1.5,5.9,2.7,7.2C44.4,49.5,44.4,49,44.4,54.5z M43.5,42.3
				c0.1-0.4,0.4-0.2,0.5-0.4c0.1-0.2-0.1-2.5-0.8-2.5c-0.6,0-0.1,1,0,1.3C43.3,41.3,43.2,41.8,43.5,42.3z M41,41.5
				c0,0.1,0.3,0.3,0.3,0.5c1.2,1.8,0.6,2.5,1.6,3.1c1.4,0.8,2,1.4,2,1.4c0.2-0.6-0.7-1.4-1.1-1.7c-0.4-0.2-0.5,0-0.7-0.7
				c-0.4-1.5-1.2-1.9-1.4-2.6c0-0.2,0.1-2.5-0.8-2.5c-0.6,0,0,1.5,0,1.8C41.1,40.9,41,41.3,41,41.5z M42.1,41.6
				c0.2,0.4,0.8,0.6,1.3,2.2c0.2,0.6,0.7,0.8,1.1,1.1c-0.1-0.5-1.4-2.3-1.5-3.1c-0.1-0.7,0.1-2.6-1-2.5c-0.4,0,0,1,0,1.3
				C42.1,40.8,42,41.3,42.1,41.6z M95.8,42.3c0.3-0.5,0.2-1,0.3-1.6c0-0.3,0.6-1.4,0-1.3c-0.7,0.1-0.9,2.4-0.8,2.5
				C95.3,42.1,95.7,42,95.8,42.3z M94.7,44.9c0.4-0.4,0.9-0.5,1.1-1.1c0.5-1.7,1.2-1.9,1.3-2.2c0.1-0.2,0-0.8,0-1
				c0-0.3,0.4-1.3,0-1.3c-1-0.1-0.8,1.8-1,2.5C96.1,42.6,94.9,44.5,94.7,44.9z M92.6,59.7c1.4,0,2.7-0.6,2.8-1.1
				c0-0.3-0.1-0.5-0.4-0.4c-0.6,0.2-1.3,0.7-2.3,0.6c-2.3,0-2.4-0.8-2.7-0.4C89.6,59,91,59.6,92.6,59.7z M95.4,44.7
				c-0.4,0.2-1.3,1.1-1.1,1.7c0,0,0.5-0.6,2-1.4c1.1-0.6,0.4-1.3,1.6-3.1c0.1-0.1,0.3-0.3,0.3-0.5c0-0.2-0.1-0.5,0-0.7
				c0-0.4,0.6-1.8,0-1.8c-0.9,0-0.8,2.3-0.8,2.5c-0.1,0.7-0.9,1-1.4,2.6C95.9,44.7,95.8,44.5,95.4,44.7z M89.9,68.9
				c-0.2-0.1-0.9-0.3-1-0.5c-0.1-0.2,0.3-0.4,0.4-1c0.1-0.9-0.7-1.9-2.4-1.8c-0.7,0.1-1.5,0.5-1.5,0.3c0-0.2,0.3-0.5,0.4-0.7
				c1.2-2.1-0.5-4-2.1-3.3c-0.6,0.3-1.1,0.9-1.6,1.3c-3.7,3.6-8.1,5.3-12.4,5.2c0,0,0,0,0,0c0,0,0,0,0,0c-4.3,0-8.7-1.7-12.4-5.2
				c-0.5-0.5-1-1.1-1.6-1.3c-1.6-0.7-3.3,1.2-2.1,3.3c0.1,0.1,0.4,0.5,0.4,0.7c0,0.1-0.8-0.3-1.5-0.3c-1.6-0.1-2.5,0.9-2.4,1.8
				c0.1,0.6,0.4,0.8,0.4,1c-0.1,0.2-0.8,0.5-1,0.5c-1.3,0.7-1,2-0.6,1.8c0.1,0,0.5-0.3,1.1-0.5c3.6-1.3,5.2,2.1,7.5,2.7
				c0.6,0.1,1.3,0.1,1.8-0.3c0.6-0.6,0.5-1.6,0.5-1.6c0.5,0.3,1,0.6,1.3,0.8c2.5,1.5,5.6,2.1,8.7,2c3,0.1,6.2-0.5,8.7-2
				c0.3-0.2,0.8-0.5,1.3-0.8c0,0-0.2,1.1,0.5,1.6c0.5,0.4,1.2,0.5,1.8,0.3c2.4-0.6,3.9-4,7.5-2.7c0.6,0.2,1,0.5,1.1,0.5
				C90.9,71,91.2,69.6,89.9,68.9z M92.7,60.9c1.4,0,3.3-0.7,3.1-1.3C95.5,59,95,60,92.7,60c-2.2,0-2.9-0.8-3.1-0.2
				C89.3,60.5,91.4,60.9,92.7,60.9z M92.7,61.4c-2.7-0.1-3.4-1.1-3.4-0.3c0,0.6,1.8,1.1,3.5,1.1c2.1,0,3.5-0.8,3.3-1.4
				C96,60.2,94.9,61.5,92.7,61.4z M99.5,38.7c-0.6-0.2-0.9,1.1-0.9,1.7c-0.1,0.4,0.1,0.9-0.1,1.3c-0.2,0.5-0.6,0.9-0.8,1.4
				c-0.4,1-0.3,1.8-1.3,2.3c-0.8,0.5-1.6,0.9-2.1,1.8c-1.2-0.7,2.7-5.4,0.7-4.8c-0.6,0.2-1,1-1.4,1.5c-3.8,4.6-3-0.7-3.2,12.3
				c0,0.7-0.2,1.5,0.4,1.9c1.4,0.8,3.9,0.1,4.2-0.4c0.2-0.3,0-0.7,0-3.2c0-5.4,0-4.9,2-6.8c1.3-1.2,2.3-2.7,2.7-7.2
				C99.6,40,100,38.9,99.5,38.7z M69.3,19.4c0,2,0,5.4,0,5.7c0,0.7,0.6,0.7,0.6,0c0-0.8,0-1.5,0-2.3c1,0.4,2,0.8,3.1,1.2
				c-0.6-0.7-1.2-1.3-1.7-2c0.7-0.3,1.3-0.6,2-0.9c-0.1,0-3.4-1.3-3.4-1.3s0-0.2,0-0.3c0,0,0.4-0.1,0.4-0.3c0-0.2-0.6-0.4-1.1-0.2
				C68.8,18.9,68.7,19.2,69.3,19.4z"/>
			<path class="st4" d="M68.8,72.8c0.5-0.2,0.8-0.6,1-1.1c0-0.1,0.2-0.6,0.1-0.7c-0.2-0.2-0.5-0.1-0.6,0.1c-0.1,0.3,0.1,0.6,0,0.9
				c-0.5,1-3.7,0-2.7,0.7C67.1,73.2,68.3,73,68.8,72.8z M71.5,72.7c0.6-0.5,1.5-0.4,1.4-1.6c0-0.3-0.3-1-0.6-1.1
				c-0.2-0.1-0.7,0.1-0.6,0.5c0,0.2,0.5,0.3,0.7,0.6c0.2,0.3,0.2,0.7-0.1,0.8c-0.3,0.1-0.5,0-0.8,0.2C71.2,72.4,71,73.1,71.5,72.7z
				 M70.6,72.1c0.2-0.5,0.1-1.2,0.1-1.7c0-0.2,0.1-1.7-0.4-0.9c-0.2,0.3,0.1,0.8,0.1,1.1c0,0.2-0.2,1.7,0,1.8
				C70.5,72.4,70.6,72.1,70.6,72.1z M68.8,69.7c0-0.3,0.1-0.4-0.2-0.4c-0.1,0-0.4,0.2-0.4,0.3c-0.1,0.2,0.1,0.9,0.1,1.1
				c0,0.2,0,1.5-0.2,1.6C68.6,72,68.8,70,68.8,69.7z M66.7,71.8c0.4-0.3,0.4-0.9,0.5-1.4c0-0.4,0.3-1,0.1-1.4
				c-0.7,0.1-0.4,0.8-0.5,1.3c0,0.3-0.3,1.7-0.9,1.1c-0.3-0.3,0.1-0.6-0.5-0.6c-0.2,0-0.4,0.2-0.5,0.2c-0.5,0-0.1-0.1-0.4-0.4
				c-0.4-0.4-0.8,0.1-1.1-0.1c-0.1-0.1,0-0.3-0.1-0.5c-0.2-0.2-0.5-0.1-0.7-0.1c-3-0.2-2.2-1.3-1.9-2c0.1-0.2,0.7-1.1,0.7-1.2
				c-0.2-0.4-0.8,0.3-0.9,0.5c-0.1,0.5-0.1,0.9-0.5,1.3c-0.5,0.5-1.1,0-1.5-0.4c-0.2-0.2-0.8-0.9-0.7-0.1c0.1,0.7,1.1,0.9,1.6,1.1
				c0.4,0.2,0.5,0.5,0.9,0.7c0.7,0.4,1.5,0.3,2.3,0.5c0.4,0.1,0.4,0.5,0.8,0.5c0.2,0,0.5-0.1,0.6,0.1c0.1,0.2-0.2,0.2,0.1,0.4
				c0.4,0.2,0.9-0.2,1.3,0.1c0.2,0.1,0.2,0.4,0.6,0.4C66.2,72.1,66.5,72,66.7,71.8z M59.5,67.9c1.4-1.9,0.7-2.1,0.3-1.5
				c-0.1,0.2-0.1,0.7-0.3,0.9c-0.1,0.2-0.4,0.6-0.4,0.8C59.1,68.4,59.4,68.1,59.5,67.9z M54.9,64.9c-0.6,0,0.2,0.6,0.4,0.8
				c0.2,0.4,0.3,0.6,0.8,0.8c0.3,0.1,0.9,0,1.1,0.1c0.1,0.1,0,0.2,0.1,0.4c0.2,0.4-0.1,0.3,0.3,0.3c1,0,1.6-2.2,0-1.4
				C57,66.1,56.6,66.4,56,66C55.6,65.7,55.5,65,54.9,64.9z M57.9,66.2c0.3,0,0.1,0.6-0.1,0.5C57.5,66.6,57.7,66.2,57.9,66.2z
				 M80.3,66.8c0.2,0.9,0.7,0,1,0.3c0.3,0.3-0.5,1.3-0.6,1.4c-0.2,0.2-1.4,1.2-1.4,1.3c0.1,0.4,1.9-0.8,2.2-2.2
				C82.2,64.5,79.9,65.1,80.3,66.8z M80.9,65.9c0.4,0,0.3,0.8,0,0.8C80.6,66.8,80.5,66,80.9,65.9z M78.7,69.7c0.2-0.8-0.6-0.3-0.6-1
				c0-0.2,0.2-0.9-0.1-1c-0.3-0.1-0.4,0.2-0.4,0.5c0,0.4,0.2,0.6-0.1,1c0,0-0.6,0.7-0.4,0.7c0.4,0,0.5-0.6,0.9-0.3
				c0.9,0.7-1.5,1.9-2.2,1.7c-0.7-0.2-0.1-1.2-0.3-1.3c-0.3-0.1-0.9,1.2-0.2,1.6C76.5,72.1,78.4,71,78.7,69.7z M82,68.6
				c0.9-1,0.5-2.3,0.7-2.6c0.3-0.4,1.1-0.4,1.2-1c0.2-0.6-0.3-0.1-0.5,0.1c-0.3,0.3-0.8,0.3-1,0.6c-0.2,0.3-0.1,1-0.2,1.4
				c-0.1,0.6-0.3,1-0.6,1.5C81.1,69.1,81.6,69,82,68.6z M77.1,68c0.1-0.3-0.5-0.1-0.3,0.1C76.9,68.2,77,68.2,77.1,68z M83.8,66.2
				c0.1-0.3-0.6-0.1-0.3,0.1C83.6,66.4,83.7,66.3,83.8,66.2z M75.7,61.3c-0.8,0.4,0,1,0.1,1.6c1.1,3.1-0.7,1.9-1.5,2.2
				c-0.4,0.1-0.5,0.2-0.8,0.1c-0.3-0.1-0.1-0.5-0.3,0c-0.3,0.8,0.7,0.4,0.8,0.5c0.3,0.2-0.1,0.7,0.5,0.7c0.4,0.1,0.6-0.2,0.7-0.5
				c0.2-0.3,0.2-0.3,0.5-0.5c0.8-0.4,1-1,0.8-1.9C76.4,63,76.2,61.7,75.7,61.3z M74.6,65.4c0.4,0,0.5,0.7,0,0.6
				C74.4,66.1,74.3,65.5,74.6,65.4z M65.5,63c-0.4,0-1,0.6-1,1c0.1,0.5,0.6,0.4,0.2,0.8c-0.3,0.3-0.9,0.4-1.4,0.4
				c-0.3,0-1.4-0.6-1.7-0.5c-0.9,0.4,1.8,1.9,3.5,0.1c0.1-0.1,0.3-0.4,0.4-0.5c0.2,0,0.8,0.1,0.9,0.2c0.2,0.2,0,0.3,0.4,0.5
				c0.4,0.2,1,0,1.4,0.1c0.3,0.1,0.3,0.2,0.6,0.2c0.5,0,1-0.1,1.5-0.1c0.8,0.1,1.2,0.6,2.6-0.6c0.2-0.2,0.2-0.2,0.4-0.3
				c0.1-0.1,0.7-0.1,0.7-0.3c0-0.1-1.9-0.6-2.1-0.5c-0.3,0.1-0.5,0.3-0.2,0.5c0.2,0.2,0.6-0.2,0.9,0.1c0.4,0.5-0.7,0.8-1,0.8
				c-0.4,0-0.7-0.2-1.1-0.2c-0.1,0-0.2,0.1-0.3,0c-0.1,0-0.2-0.2-0.2-0.2c-0.2,0-0.7,0.3-0.9,0.3c-0.1,0-0.1-0.2-0.1-0.2
				c-0.4-0.1-1.2,0.2-1.6-0.1c-0.3-0.2,0-0.4-0.1-0.6c-0.2-0.4-0.6,0-0.9,0C65.7,64.1,66.2,63.1,65.5,63z M65.3,63.6
				c0.2,0,0.3,0.5-0.1,0.4C65,63.9,65.1,63.6,65.3,63.6z M64.6,62.8c-0.2-0.8-0.4,0.2-0.5,0.5c-0.2,1.1-1.7,0.8-1.5-0.1
				c0-0.1,0.5-0.7,0.4-0.8c-0.2-0.1-0.5,0.5-0.7,0.5c-0.1,0,0-0.9-0.5-0.4c-0.2,0.2,0,0.4-0.3,0.5c-0.2,0.1-0.5-0.1-0.6-0.3
				c-0.1-0.5,1.7-1.8,1.7-2.3c0-0.1-0.5-0.1-0.6,0c-0.1,0-0.2,0.4-0.3,0.5c-0.4,0.5-1.1,1.1-1.3,1.7c-0.3,1,1.2,0.7,1.7,0.4
				c0,0.4,0,0.8,0.2,1.1C63.1,64.8,64.9,64.2,64.6,62.8z M83,57.5C82.7,57.7,83,58,83,58.2c0,1-1.2,0.6-1.8,1.4
				c-0.1,0.2-0.2,0.6-0.4,0.7c-0.3,0.2-0.3,0-0.6-0.2c-0.7-0.5-1,0.2-1.1,0.8c-0.1-0.2-0.5-1-0.7-0.3c-0.1,0.4,0.4,0.7,0.4,1
				c0.1,0.5-0.4,1.1-0.9,0.9c-0.3-0.1-0.3-0.9-0.5-0.9c-0.3,0-0.1,0.6-0.4,0.4c-0.2-0.2-0.1-1.5-0.6-0.7c-0.2,0.4,0.3,1,0.4,1.5
				c0.1,0.2,0.1,1.2,0.3,1.3c0.1-0.2-0.1-1,0.1-1.1c0.4-0.3,2.1,0.9,2-1.9c0.2,0,1,0,1.1,0.2c0.3,0.4-0.3,1.5-0.7,2
				c-0.2,0.2-0.5,0.4-0.6,0.6c-0.4,0.7,0.7-0.1,0.9-0.4c0.5-0.6,0.6-1.2,0.7-2c0.1-0.9,0.4-0.6,1-0.8c0.7-0.2,0.3-0.7,0.6-1.2
				c0.3-0.4,0.9-0.4,1.1-1C83.4,58.3,83.4,57.6,83,57.5z M81.7,59.9c0.4,0.1-0.1,0.9-0.3,0.4C81.4,60.1,81.5,59.9,81.7,59.9z
				 M79.8,60.5c0.5,0,0.3,0.8-0.1,0.4C79.5,60.7,79.6,60.4,79.8,60.5z M60.8,63.6c0.1-0.3-0.3,0-0.3,0
				C60.6,63.6,60.6,63.9,60.8,63.6z M67,62.9c0-0.4-0.3,0-0.3,0C66.7,62.9,67,63.2,67,62.9z M59.3,59c-0.5-0.1-0.8,1.2-1.5,1.2
				c-0.7,0-0.8-1.4-1.2-0.7c-0.3,0.5,0.7,0.9,1,1.2c0.1,0.2,0.1,0.2,0.2,0.4c0.1,0.1,0.2,0,0.4,0.2c0.2,0.3-0.3,0.7-0.2,1
				c0.2,0.4,0.3-0.3,0.6-0.4c0.7-0.3,1.6,0.9,3.1-1.4c0.1-0.1,0.5-0.4,0.1-0.5c-0.4-0.1-0.6,0.9-1.3,1.4c-0.2,0.1-1.1,0.3-1,0.1
				c0.2-0.3,1.1-0.7,0.4-0.9c-0.4-0.1-1.2,0.7-1.5,0.5C57.7,60.5,60.4,58.8,59.3,59z M59.6,60.9c0.2,0.1-0.3,0.4-0.4,0.3
				C59,61,59.5,60.9,59.6,60.9z M58.9,61.4c0.1,0,0.4,0.1,0.1,0.2C58.8,61.7,58.6,61.4,58.9,61.4z M64.3,61.7c0-0.3-0.3,0-0.3,0
				C63.9,61.7,64.3,62,64.3,61.7z M77.9,60.4c0.1-0.3-0.5-0.3-0.3,0.1C77.7,60.7,77.8,60.6,77.9,60.4z M56.8,58.7
				c0.4-0.4-0.2-1,0.1-1.3c0.3-0.3,1.3,0.4,1.3,0.8c0,0.2-0.6,0.6-0.2,0.7c0.1,0,0.5-0.3,0.6-0.5c0.3-0.6-0.6-1.1-1-1.3
				c-2.3-1-0.4,2.3-1.8,1.1c-1-0.9-0.9-2.4-0.3-2.8c0.1-0.1,0.8-0.2,0.8-0.3c0-0.4-1.1,0.1-1.3,0.2C53.6,56.6,55.8,59.6,56.8,58.7z
				 M82.1,57.7c0.1-0.1,0.2-0.6,0.3-0.7c0.2-0.4,0.3-0.4-0.1-0.4c-0.1,0-0.5,0.4-0.4,0c0.1-0.2,0.7-0.3,0.2-0.6
				c-0.5-0.3-0.8,0.6-0.6,1c0.1,0.1,0.2,0.1,0.3,0.2c0,0.1,0,0.3,0,0.4C81.9,57.7,81.8,57.9,82.1,57.7z M85.3,56.5
				c0.4-0.4,0.4-0.8,0.2-1.3c-0.1-0.3-1.7-2-1.9-1.9c-0.3,0.1,0,0.6,0.1,0.7c0.3,0.3,0.8,0.5,1.1,0.9c0.1,0.2,0.8,0.9,0.4,1.2
				c-0.3,0.2-0.7-0.4-0.9-0.6c-0.2-0.2-0.7-0.7-0.6,0c0.1,0.5,0.8,0.8,0.7,1.3c0,0.1-0.2,0.4-0.4,0.4c-0.2,0-0.2-0.1-0.3-0.3
				c-0.1-0.1-1.2-1.7-1.4-1.6c-0.4,0.1,0.1,0.6,0.2,0.8C84.5,57.9,83.7,58.2,85.3,56.5z M83.9,52.4c-0.2,0-0.1,0.2-0.1,0.3
				c0,0.4,0.1,0.3,0.3,0.4C87.3,56.3,84.4,52.4,83.9,52.4z M76.8,72c0,0.3-0.4,0.3-0.4,0C76.4,71.7,76.8,71.7,76.8,72z M77.6,71.7
				c0,0.3-0.4,0.3-0.4,0C77.2,71.4,77.6,71.4,77.6,71.7z"/>
		</g>
	</g>
</g>
</svg>
