<?xml version="1.0" encoding="utf-8"?>
<!-- Generator: Adobe Illustrator 27.8.0, SVG Export Plug-In . SVG Version: 6.00 Build 0)  -->
<svg version="1.1" id="Layer_1" xmlns="http://www.w3.org/2000/svg" xmlns:xlink="http://www.w3.org/1999/xlink" x="0px" y="0px"
	 viewBox="0 0 138.6 92.4" style="enable-background:new 0 0 138.6 92.4;" xml:space="preserve">
<style type="text/css">
	.st0{fill:#FFFFFF;}
	.st1{fill:#D00100;}
	.st2{fill:#CC011D;}
	.st3{fill-rule:evenodd;clip-rule:evenodd;fill:#D00100;}
</style>
<g>
	<g>
		<rect x="43.3" class="st0" width="52.7" height="92.4"/>
		<rect x="0" class="st1" width="43.3" height="92.4"/>
		<rect x="96" class="st2" width="42.6" height="92.4"/>
		<path class="st3" d="M68.4,72.8c0-0.3,0-0.6,0.1-1.5c0.2-3.1,0.5-9.3,0.3-11.3c0-0.5-0.5-0.4-0.7-0.4c-1.7,0.1-7.5,0.9-10.7,1.3
			c0.7-1.7,1.4-3.4,1.1-4.2c-0.4-1.4-5.5-5.8-11.2-10.7c1.3-0.4,2.7-0.8,2.8-1.7c0.3-1.2-0.4-3.6-1.9-8.4c3.7,1.2,5.7,1.8,6.8,1.5
			c0.7-0.3,0.9-1.5,1.1-3.8c2,2.3,5,7.2,6.1,6.9c1.6-0.6-0.7-9.7-1.5-14.5c1.7,1.2,2.8,2.1,3.7,2.1c1.2-0.1,2.5-3.3,4.7-8.8
			c2.3,5.5,3.5,8.7,4.7,8.8c0.9,0,2-0.9,3.7-2.1C77,31,74.7,40.1,76.3,40.7c1,0.3,4-4.6,6.1-6.9c0.2,2.3,0.4,3.5,1.1,3.8
			c1.2,0.3,3.2-0.3,6.8-1.5c-1.5,4.8-2.2,7.2-1.9,8.4c0.2,0.9,1.6,1.3,2.8,1.7c-5.7,4.9-10.8,9.2-11.2,10.7
			c-0.2,0.8,0.5,2.5,1.1,4.2c-3.2-0.4-9-1.2-10.7-1.3c-0.2,0-0.7-0.1-0.7,0.4c-0.2,2,0.2,8.1,0.3,11.3c0,0.8,0.1,1.2,0.1,1.5
			C70.2,73,68.4,73,68.4,72.8z"/>
	</g>
</g>
</svg>
