<?xml version="1.0" encoding="utf-8"?>
<!-- Generator: Adobe Illustrator 27.8.0, SVG Export Plug-In . SVG Version: 6.00 Build 0)  -->
<svg version="1.1" id="Layer_1" xmlns="http://www.w3.org/2000/svg" xmlns:xlink="http://www.w3.org/1999/xlink" x="0px" y="0px"
	 viewBox="0 0 138.6 92.4" style="enable-background:new 0 0 138.6 92.4;" xml:space="preserve">
<style type="text/css">
	.st0{fill-rule:evenodd;clip-rule:evenodd;fill:#2746C6;}
	.st1{fill-rule:evenodd;clip-rule:evenodd;fill:#F2D131;}
</style>
<g>
	<g>
		<rect x="0" class="st0" width="138.6" height="92.4"/>
		<g>
			<polygon class="st1" points="45.5,42.4 46.3,45 49,45 46.9,46.5 47.7,49.1 45.5,47.5 43.4,49.1 44.2,46.5 42,45 44.7,45 			"/>
			<polygon class="st1" points="72.8,21.2 70.6,22.8 71.5,25.3 69.3,23.7 67.1,25.3 68,22.8 65.8,21.2 68.5,21.2 69.3,18.7 
				70.1,21.2 			"/>
			<polygon class="st1" points="90.9,49.1 91.7,46.5 89.6,45 92.3,45 93.1,42.4 93.9,45 96.6,45 94.4,46.6 95.2,49.1 93.1,47.5 			
				"/>
			<polygon class="st1" points="65.8,68.9 68.4,68.8 69.1,66.2 70.1,68.7 72.7,68.6 70.6,70.3 71.6,72.7 69.4,71.3 67.3,73 68,70.4 
							"/>
			<polygon class="st1" points="53.9,65.6 56.6,65.6 57.4,63 58.2,65.6 60.9,65.5 58.7,67.1 59.6,69.7 57.4,68.1 55.3,69.7 
				56.1,67.1 			"/>
			<polygon class="st1" points="48.7,54.3 49.5,56.9 52.2,56.9 50,58.4 50.9,61 48.7,59.4 46.6,61 47.4,58.4 45.2,56.9 47.9,56.9 
							"/>
			<polygon class="st1" points="52.2,33.1 50,34.7 50.9,37.2 48.7,35.6 46.6,37.2 47.4,34.7 45.2,33.1 47.9,33.1 48.7,30.6 
				49.5,33.1 			"/>
			<polygon class="st1" points="60.9,24.4 58.7,26 59.6,28.5 57.4,26.9 55.3,28.5 56.1,26 53.9,24.4 56.6,24.4 57.4,21.9 58.2,24.4 
							"/>
			<polygon class="st1" points="83.3,28.5 81.2,26.9 79,28.5 79.9,26 77.7,24.4 80.4,24.4 81.2,21.9 82,24.4 84.7,24.4 82.5,26 			
				"/>
			<polygon class="st1" points="92,37.2 89.9,35.6 87.7,37.2 88.6,34.6 86.4,33.1 89.1,33.1 89.9,30.6 90.7,33.1 93.4,33.1 
				91.2,34.7 			"/>
			<polygon class="st1" points="87.7,61 88.6,58.4 86.4,56.8 89.1,56.9 89.9,54.3 90.7,56.9 93.4,56.9 91.2,58.5 92,61 89.9,59.4 
							"/>
			<polygon class="st1" points="79.2,69.8 79.9,67.2 77.6,65.7 80.3,65.6 81,63 82,65.5 84.6,65.4 82.5,67.1 83.5,69.6 81.2,68.1 
							"/>
		</g>
	</g>
</g>
</svg>
