<?xml version="1.0" encoding="utf-8"?>
<!-- Generator: Adobe Illustrator 27.8.0, SVG Export Plug-In . SVG Version: 6.00 Build 0)  -->
<svg version="1.1" id="Layer_1" xmlns="http://www.w3.org/2000/svg" xmlns:xlink="http://www.w3.org/1999/xlink" x="0px" y="0px"
	 viewBox="0 0 138.6 92.4" style="enable-background:new 0 0 138.6 92.4;" xml:space="preserve">
<style type="text/css">
	.st0{fill:#FFFFFF;}
	.st1{fill:#394A9F;}
	.st2{fill:#CF2026;}
	.st3{fill:#171717;}
	.st4{fill:#F3DE3B;}
	.st5{opacity:0.5;fill:#828282;}
	.st6{fill:url(#SVGID_1_);}
</style>
<g>
	<g>
		<rect x="45.7" class="st0" width="47" height="92.4"/>
		<polygon class="st1" points="0.1,0 0,0 0,92.4 0.1,92.4 45.7,92.4 45.7,0 		"/>
		<polygon class="st2" points="92.7,0 92.7,92.4 138.6,92.4 138.6,0 138.6,0 		"/>
	</g>
</g>
<g>
	<polygon class="st3" points="1.1,0 0,0 0,30.6 47.9,30.6 	"/>
	<polygon class="st2" points="47.9,30.6 0,30.6 0,61.5 95.2,61.5 	"/>
	<polygon class="st4" points="95.2,61.5 0,61.5 0,92.4 138.6,92.4 138.6,89.8 	"/>
	<path class="st5" d="M1.1,0l137.5,89.8c0,0-63.2-41.3-79.8-36C61.6,42,1.1,0,1.1,0z"/>
	<linearGradient id="SVGID_1_" gradientUnits="userSpaceOnUse" x1="64.148" y1="52.5295" x2="76.8539" y2="35.5884">
		<stop  offset="0" style="stop-color:#FFFFFF"/>
		<stop  offset="1" style="stop-color:#000000"/>
	</linearGradient>
	<path class="st6" d="M1.1,0l137.5,89.8c0,0-58-40.5-77.5-39.3C60.7,38.6,1.1,0,1.1,0z"/>
</g>
</svg>
