<?xml version="1.0" encoding="utf-8"?>
<!-- Generator: Adobe Illustrator 27.8.0, SVG Export Plug-In . SVG Version: 6.00 Build 0)  -->
<svg version="1.1" id="Layer_1" xmlns="http://www.w3.org/2000/svg" xmlns:xlink="http://www.w3.org/1999/xlink" x="0px" y="0px"
	 viewBox="0 0 138.6 92.4" style="enable-background:new 0 0 138.6 92.4;" xml:space="preserve">
<style type="text/css">
	.st0{fill:#CD141E;}
	.st1{fill:#1F36A0;}
	.st2{fill:#FFFFFF;}
</style>
<g>
	<g>
		<path class="st0" d="M138.6,0v36H67.1V0H138.6z M0,56.6v35.9h43.9V56.6H0z M43.9,0H0v36h43.9V0z M67.1,92.4h71.5V56.6H67.1V92.4z"
			/>
		<polygon class="st1" points="60.7,41.2 60.7,0 50.4,0 50.4,41.2 0,41.2 0,51.5 50.4,51.5 50.4,92.4 60.7,92.4 60.7,51.5 
			138.6,51.5 138.6,41.2 		"/>
		<path class="st2" d="M50.4,51.5v40.9h-6.5V56.6H0v-5.1H50.4z M60.7,92.4h6.5V56.6h71.5v-5.1h-78C60.7,51.5,60.7,92.4,60.7,92.4z
			 M67.1,0h-6.5v41.2h78V36H67.1V0z M50.4,0h-6.5v36H0v5.2h50.4V0z"/>
	</g>
</g>
</svg>
