<?xml version="1.0" encoding="utf-8"?>
<!-- Generator: Adobe Illustrator 27.8.0, SVG Export Plug-In . SVG Version: 6.00 Build 0)  -->
<svg version="1.1" id="Layer_1" xmlns="http://www.w3.org/2000/svg" xmlns:xlink="http://www.w3.org/1999/xlink" x="0px" y="0px"
	 viewBox="0 0 138.6 92.4" style="enable-background:new 0 0 138.6 92.4;" xml:space="preserve">
<style type="text/css">
	.st0{fill-rule:evenodd;clip-rule:evenodd;fill:#FFFFFF;}
	.st1{fill-rule:evenodd;clip-rule:evenodd;fill:#CD2027;}
	.st2{fill-rule:evenodd;clip-rule:evenodd;fill:#263C96;}
</style>
<g>
	<g>
		<rect y="0" class="st0" width="138.6" height="92.4"/>
		<polygon class="st1" points="138.6,38.5 138.6,54 76.1,54 76.1,92.4 62.5,92.4 62.5,54 0,54 0,38.5 62.5,38.5 62.5,0 76.1,0 
			76.1,38.5 		"/>
		<path class="st2" d="M12.8,0H59v30.5L12.8,0z M79.6,0h46.2L79.6,30.5V0z M138.6,9.5L101,34.3h37.6V9.5z M101,58.2h37.6V83
			L101,58.2z M125.8,92.4L79.6,62v30.5L125.8,92.4L125.8,92.4z M0,58.2h37.6L0,83V58.2z M59,62L12.8,92.4H59V62z M37.6,34.3L0,9.5
			v24.8H37.6z"/>
		<g>
			<polygon class="st1" points="42.6,34.3 0,6.2 0,0.4 51.3,34.3 			"/>
			<polygon class="st1" points="59,58.9 8.1,92.4 0,92.4 0,92.1 51.4,58.2 59,58.2 			"/>
			<polygon class="st1" points="138.6,0.7 87.7,34.3 79.6,34.3 79.6,33.8 131,0 138.6,0 			"/>
			<polygon class="st1" points="138.6,91.7 87.7,58.2 96.4,58.2 138.6,86 			"/>
		</g>
	</g>
</g>
</svg>
