<?xml version="1.0" encoding="utf-8"?>
<!-- Generator: Adobe Illustrator 27.8.0, SVG Export Plug-In . SVG Version: 6.00 Build 0)  -->
<svg version="1.1" id="Layer_1" xmlns="http://www.w3.org/2000/svg" xmlns:xlink="http://www.w3.org/1999/xlink" x="0px" y="0px"
	 viewBox="0 0 138.6 92.4" style="enable-background:new 0 0 138.6 92.4;" xml:space="preserve">
<style type="text/css">
	.st0{fill:#CB2026;}
	.st1{fill:#FDD700;}
</style>
<g>
	<rect class="st0" width="138.6" height="92.4"/>
	<g>
		<g>
			<path class="st1" d="M23.7,9.7c0.4-1.3,0.9-2.6,1.3-3.9c0.4,1.3,0.9,2.6,1.3,3.9c1.4,0,2.8,0,4.1,0c-1.1,0.8-2.2,1.6-3.3,2.5
				c0.4,1.3,0.8,2.6,1.3,3.9c-1.1-0.8-2.2-1.6-3.3-2.4c-1.1,0.8-2.2,1.6-3.3,2.4c0.4-1.3,0.8-2.6,1.3-3.9c-1.1-0.8-2.2-1.6-3.3-2.5
				C21,9.7,22.3,9.7,23.7,9.7z M25,8.2c-0.2,0.8-0.5,1.5-0.7,2.3c-0.8,0-1.6,0-2.4,0c0.6,0.5,1.3,0.9,1.9,1.4
				c-0.2,0.7-0.5,1.5-0.7,2.2c0.6-0.5,1.3-0.9,1.9-1.4c0.6,0.5,1.3,0.9,1.9,1.4c-0.2-0.7-0.5-1.5-0.7-2.2c0.6-0.5,1.3-0.9,1.9-1.4
				c-0.8,0-1.6,0-2.4,0C25.5,9.8,25.3,9,25,8.2z"/>
		</g>
		<path class="st1" d="M24.9,17.3c3.6,2.2,7.2,5,8.8,9.1c1.2,3,0.5,6.5-1.6,8.9c0.8,0.8,1.7,1.6,2.5,2.4c0.3,0.3,0.7,0.7,0.7,1.3
			c0,0.9-0.9,1.6-1.7,1.4c-0.4-0.1-0.7-0.4-1-0.7c-0.9-0.9-1.8-1.8-2.7-2.7c-1.7,0.9-3.6,1.3-5.5,0.9c-1.8-0.3-3.4-1.2-4.7-2.5
			c-0.3,0.7-1,0.9-1.6,1.3c-0.8,1.2-1.5,2.7-2.9,3.4c-0.8,0.5-2.1,0.1-2.2-1c-0.1-0.8,0.4-1.4,0.9-2c0.9-0.9,2-1.5,3-2.2
			c0.2-0.7,0.7-1.2,1.5-1.2c0.1-0.1,0.2-0.3,0.2-0.4c0.3,0.1,0.7,0.1,1,0.2c0.2-0.2,0.4-0.4,0.6-0.6c1.9,1.9,4.8,2.5,7.3,1.7
			c-2.5-2.6-5.1-5.2-7.6-7.7c-0.8,0.8-1.6,1.6-2.4,2.4c-0.9-0.9-1.9-1.9-2.8-2.8c1.7-1.7,3.5-3.3,5.2-5c1.6,0.2,3.2,0.3,4.7,0.5
			c-1,1-2,2-2.9,3c2.7,2.7,5.4,5.4,8.2,8.1c1.5-1.7,1.6-4.2,1-6.3C29.7,23.1,27.3,20.1,24.9,17.3z"/>
	</g>
</g>
</svg>
