<?xml version="1.0" encoding="utf-8"?>
<!-- Generator: Adobe Illustrator 27.8.0, SVG Export Plug-In . SVG Version: 6.00 Build 0)  -->
<svg version="1.1" id="Layer_1" xmlns="http://www.w3.org/2000/svg" xmlns:xlink="http://www.w3.org/1999/xlink" x="0px" y="0px"
	 viewBox="0 0 40 40" style="enable-background:new 0 0 40 40;" xml:space="preserve">
<style type="text/css">
	.st0{fill:#444444;}
</style>
<g>
	<path class="st0" d="M20,39.7C9.3,39.7,0.5,31,0.5,20.2S9.3,0.7,20,0.7s19.5,8.7,19.5,19.5S30.8,39.7,20,39.7z M20,2.7
		c-9.6,0-17.5,7.8-17.5,17.5S10.4,37.7,20,37.7s17.5-7.8,17.5-17.5S29.7,2.7,20,2.7z"/>
</g>
<path class="st0" d="M21.4,20.2l9.1-9.1c0.4-0.4,0.4-1,0-1.4s-1-0.4-1.4,0L20,18.8l-9.1-9.1c-0.4-0.4-1-0.4-1.4,0s-0.4,1,0,1.4
	l9.1,9.1l-9.1,9.1c-0.4,0.4-0.4,1,0,1.4C9.7,30.9,10,31,10.2,31s0.5-0.1,0.7-0.3l9.1-9.1l9.1,9.1c0.2,0.2,0.5,0.3,0.7,0.3
	s0.5-0.1,0.7-0.3c0.4-0.4,0.4-1,0-1.4L21.4,20.2z"/>
</svg>
