<?xml version="1.0" encoding="UTF-8"?>
<svg id="Layer_1" data-name="Layer 1" xmlns="http://www.w3.org/2000/svg" viewBox="0 0 58.16 14.84">
  <defs>
    <style>
      .cls-1 {
        fill: #fff;
        stroke-width: 0px;
      }
    </style>
  </defs>
  <path class="cls-1" d="m5.39,4.19v2.09h-1.46v8.35H1.46V6.27H0v-2.09h5.39Z"/>
  <path class="cls-1" d="m11.27,4.19v6.97c0,.79-.02,1.35-.07,1.67s-.19.65-.42.99-.53.59-.91.77-.82.26-1.33.26c-.57,0-1.07-.1-1.5-.31s-.76-.47-.97-.81-.34-.68-.38-1.05-.06-1.14-.06-2.32v-6.17h2.47v7.82c0,.46.02.75.07.87s.14.19.27.19c.16,0,.26-.07.3-.21s.07-.47.07-.99v-7.69h2.47Z"/>
  <path class="cls-1" d="m11.76,4.19h2.48c.67,0,1.19.06,1.55.17s.63.28.81.5.3.48.37.8.1.79.1,1.45v.91c0,.67-.06,1.15-.19,1.46s-.35.54-.69.7-.77.24-1.31.24h-.66v4.2h-2.47V4.19Zm2.47,1.79v2.66c.07,0,.13,0,.18,0,.23,0,.38-.06.47-.18s.13-.38.13-.76v-.86c0-.36-.05-.59-.15-.7s-.31-.16-.63-.16Z"/>
  <path class="cls-1" d="m23.95,4.19v2.09h-1.46v8.35h-2.47V6.27h-1.46v-2.09h5.39Z"/>
  <path class="cls-1" d="m24.2,4.19h1.75c1.16,0,1.95.05,2.36.15s.75.35,1.01.76.39,1.05.39,1.94c0,.81-.09,1.36-.28,1.64s-.54.45-1.08.5c.49.13.82.31.98.53s.27.43.31.62.06.7.06,1.54v2.75h-2.29v-3.47c0-.56-.04-.9-.12-1.04s-.29-.2-.63-.2v4.71h-2.47V4.19Zm2.47,1.79v2.32c.28,0,.47-.04.58-.13s.17-.36.17-.82v-.57c0-.33-.05-.55-.16-.65s-.3-.15-.59-.15Z"/>
  <path class="cls-1" d="m35.83,10.3c0,1.05-.02,1.79-.07,2.23s-.19.83-.42,1.2-.56.64-.96.83-.87.29-1.41.29-.96-.09-1.37-.27-.73-.46-.98-.82-.39-.76-.44-1.19-.07-1.18-.07-2.26v-1.79c0-1.05.02-1.79.07-2.23s.19-.83.42-1.2.56-.64.96-.83.87-.29,1.41-.29.96.09,1.37.27.73.46.98.82.39.76.44,1.19.07,1.18.07,2.26v1.79Zm-2.47-3.43c0-.49-.02-.8-.07-.93s-.15-.2-.3-.2c-.13,0-.23.05-.3.16s-.1.43-.1.97v4.87c0,.61.02.98.07,1.12s.15.21.31.21.28-.08.32-.24.07-.55.07-1.17v-4.8Z"/>
  <path class="cls-1" d="m43.9,4.19v10.43h-2.16v-7.04s-.86,7.04-.86,7.04h-1.53l-.91-6.88v6.88h-2.16V4.19h3.19c.09.63.19,1.37.29,2.22l.35,2.65.57-4.87h3.21Z"/>
  <path class="cls-1" d="m44.41,4.19h2.48c.67,0,1.19.06,1.55.17s.63.28.81.5.3.48.37.8.1.79.1,1.45v.91c0,.67-.06,1.15-.19,1.46s-.35.54-.69.7-.77.24-1.31.24h-.66v4.2h-2.47V4.19Zm2.47,1.79v2.66c.07,0,.13,0,.18,0,.23,0,.38-.06.47-.18s.13-.38.13-.76v-.86c0-.36-.05-.59-.15-.7s-.31-.16-.63-.16Z"/>
  <path class="cls-1" d="m55.38,7.34h-2.29v-.77c0-.36-.03-.59-.09-.69s-.16-.15-.29-.15c-.15,0-.26.07-.34.2-.08.13-.11.34-.11.61,0,.35.04.61.13.79.08.18.31.39.7.64,1.1.72,1.79,1.31,2.07,1.76s.43,1.2.43,2.22c0,.74-.08,1.29-.24,1.64s-.46.65-.92.89-.98.36-1.58.36c-.66,0-1.22-.14-1.69-.41s-.77-.63-.92-1.05-.22-1.03-.22-1.81v-.68h2.29v1.27c0,.39.03.64.1.75s.18.17.34.17.29-.07.37-.21.12-.35.12-.63c0-.61-.08-1.02-.23-1.21-.16-.19-.54-.5-1.15-.95-.61-.45-1.02-.77-1.22-.97s-.36-.48-.5-.84-.2-.81-.2-1.37c0-.8.09-1.38.28-1.75s.49-.66.9-.87.91-.31,1.5-.31c.64,0,1.19.11,1.64.34s.75.51.9.86.22.93.22,1.76v.41Z"/>
  <g>
    <polygon class="cls-1" points="18.52 2.61 18.56 3.14 23.96 3.14 23.9 2.23 18.52 2.61"/>
    <path class="cls-1" d="m28.26,2.07c-.42-.07-1.21-.06-2.37.02l-1.74.12.07.93h5.31c-.06-.15-.13-.28-.21-.38-.29-.39-.64-.62-1.06-.69Z"/>
    <path class="cls-1" d="m34.27,1.56c-.42-.15-.88-.21-1.38-.18-.53.04-.99.17-1.38.39s-.69.52-.9.9c-.09.15-.14.31-.2.48h5.31c-.09-.3-.22-.58-.42-.83-.27-.35-.61-.6-1.03-.75Z"/>
    <path class="cls-1" d="m39.39,1.15l-3.18.22.12,1.77h3.47c-.14-.75-.28-1.43-.41-1.99Z"/>
    <polygon class="cls-1" points="40.59 1.06 40.5 3.14 43.96 3.14 43.8 .84 40.59 1.06"/>
    <path class="cls-1" d="m49.19,1.14c-.2-.21-.48-.35-.85-.44-.37-.09-.89-.11-1.56-.07l-2.48.17.16,2.34h2.47l-.05-.73c.32-.02.53.02.64.12.1.09.16.31.19.61h2.07c-.04-.54-.1-.96-.18-1.23-.09-.31-.23-.56-.42-.77Z"/>
    <path class="cls-1" d="m52.3,2.6c-.02-.27,0-.47.07-.61.07-.14.17-.21.32-.22.14,0,.24.03.3.13.07.09.11.32.14.68l.04.57h2.3l-.03-.37c-.06-.83-.17-1.41-.34-1.74-.17-.33-.49-.6-.95-.8-.47-.2-1.02-.27-1.66-.23-.58.04-1.08.18-1.47.42-.4.24-.68.55-.84.93-.16.38-.21.97-.16,1.77,0,0,0,.01,0,.02h2.37c-.04-.15-.08-.32-.1-.54Z"/>
  </g>
  <path class="cls-1" d="m57.8,6.27c-.24.24-.53.36-.87.36s-.63-.12-.86-.36c-.24-.24-.35-.53-.35-.87s.12-.62.36-.86.52-.36.86-.36.63.12.87.36.36.53.36.86-.12.63-.36.87Zm-1.61-1.61c-.2.21-.31.45-.31.74s.1.54.3.75c.2.21.45.31.74.31s.54-.1.74-.31.31-.46.31-.75-.1-.54-.31-.74c-.21-.21-.45-.31-.74-.31s-.54.1-.74.31Zm.72.07c.17,0,.29.02.37.05.14.06.21.17.21.34,0,.12-.04.21-.13.27-.05.03-.11.05-.19.06.1.02.18.06.23.13.05.07.07.14.07.21v.1s0,.06,0,.1c0,.04,0,.06.01.07v.02s-.21,0-.21,0h0s0-.02,0-.03v-.04s0-.11,0-.11c0-.15-.04-.26-.13-.31-.05-.03-.14-.04-.26-.04h-.19v.53h-.24v-1.34h.47Zm.26.21c-.06-.03-.16-.05-.29-.05h-.2v.49h.21c.1,0,.18,0,.23-.03.09-.04.14-.11.14-.21,0-.1-.03-.16-.09-.2Z"/>
</svg>