<?xml version="1.0" encoding="UTF-8"?>
<svg id="Layer_1" data-name="Layer 1" xmlns="http://www.w3.org/2000/svg" viewBox="0 0 58.16 26.49">
  <defs>
    <style>
      .cls-1 {
        fill: #fff;
        stroke-width: 0px;
      }
    </style>
  </defs>
  <path class="cls-1" d="m5.39,15.84v2.09h-1.46v8.35H1.46v-8.35H0v-2.09h5.39Z"/>
  <path class="cls-1" d="m11.27,15.84v6.97c0,.79-.02,1.35-.07,1.67s-.19.65-.42.99-.53.59-.91.77-.82.26-1.33.26c-.57,0-1.07-.1-1.5-.31s-.76-.47-.97-.81-.34-.68-.38-1.05-.06-1.14-.06-2.32v-6.17h2.47v7.82c0,.46.02.75.07.87s.14.19.27.19c.16,0,.26-.07.3-.21s.07-.47.07-.99v-7.69h2.47Z"/>
  <path class="cls-1" d="m11.76,15.84h2.48c.67,0,1.19.06,1.55.17s.63.28.81.5.3.48.37.8.1.79.1,1.45v.91c0,.67-.06,1.15-.19,1.46s-.35.54-.69.7-.77.24-1.31.24h-.66v4.2h-2.47v-10.43Zm2.47,1.79v2.66c.07,0,.13,0,.18,0,.23,0,.38-.06.47-.18s.13-.38.13-.76v-.86c0-.36-.05-.59-.15-.7s-.31-.16-.63-.16Z"/>
  <path class="cls-1" d="m23.95,15.84v2.09h-1.46v8.35h-2.47v-8.35h-1.46v-2.09h5.39Z"/>
  <path class="cls-1" d="m24.2,15.84h1.75c1.16,0,1.95.05,2.36.15s.75.35,1.01.76.39,1.05.39,1.94c0,.81-.09,1.36-.28,1.64s-.54.45-1.08.5c.49.13.82.31.98.53s.27.43.31.62.06.7.06,1.54v2.75h-2.29v-3.47c0-.56-.04-.9-.12-1.04s-.29-.2-.63-.2v4.71h-2.47v-10.43Zm2.47,1.79v2.32c.28,0,.47-.04.58-.13s.17-.36.17-.82v-.57c0-.33-.05-.55-.16-.65s-.3-.15-.59-.15Z"/>
  <path class="cls-1" d="m35.83,21.95c0,1.05-.02,1.79-.07,2.23s-.19.83-.42,1.2-.56.64-.96.83-.87.29-1.41.29-.96-.09-1.37-.27-.73-.46-.98-.82-.39-.76-.44-1.19-.07-1.18-.07-2.26v-1.79c0-1.05.02-1.79.07-2.23s.19-.83.42-1.2.56-.64.96-.83.87-.29,1.41-.29.96.09,1.37.27.73.46.98.82.39.76.44,1.19.07,1.18.07,2.26v1.79Zm-2.47-3.43c0-.49-.02-.8-.07-.93s-.15-.2-.3-.2c-.13,0-.23.05-.3.16s-.1.43-.1.97v4.87c0,.61.02.98.07,1.12s.15.21.31.21.28-.08.32-.24.07-.55.07-1.17v-4.8Z"/>
  <path class="cls-1" d="m43.9,15.84v10.43h-2.16v-7.04s-.86,7.04-.86,7.04h-1.53l-.91-6.88v6.88h-2.16v-10.43h3.19c.09.63.19,1.37.29,2.22l.35,2.65.57-4.87h3.21Z"/>
  <path class="cls-1" d="m44.41,15.84h2.48c.67,0,1.19.06,1.55.17s.63.28.81.5.3.48.37.8.1.79.1,1.45v.91c0,.67-.06,1.15-.19,1.46s-.35.54-.69.7-.77.24-1.31.24h-.66v4.2h-2.47v-10.43Zm2.47,1.79v2.66c.07,0,.13,0,.18,0,.23,0,.38-.06.47-.18s.13-.38.13-.76v-.86c0-.36-.05-.59-.15-.7s-.31-.16-.63-.16Z"/>
  <path class="cls-1" d="m55.38,18.99h-2.29v-.77c0-.36-.03-.59-.09-.69s-.16-.15-.29-.15c-.15,0-.26.07-.34.2-.08.13-.11.34-.11.61,0,.35.04.61.13.79.08.18.31.39.7.64,1.1.72,1.79,1.31,2.07,1.76s.43,1.2.43,2.22c0,.74-.08,1.29-.24,1.64s-.46.65-.92.89-.98.36-1.58.36c-.66,0-1.22-.14-1.69-.41s-.77-.63-.92-1.05-.22-1.03-.22-1.81v-.68h2.29v1.27c0,.39.03.64.1.75s.18.17.34.17.29-.07.37-.21.12-.35.12-.63c0-.61-.08-1.02-.23-1.21-.16-.19-.54-.5-1.15-.95-.61-.45-1.02-.77-1.22-.97s-.36-.48-.5-.84-.2-.81-.2-1.37c0-.8.09-1.38.28-1.75s.49-.66.9-.87.91-.31,1.5-.31c.64,0,1.19.11,1.64.34s.75.51.9.86.22.93.22,1.76v.41Z"/>
  <g>
    <polygon class="cls-1" points="18.52 14.26 18.56 14.79 23.96 14.79 23.9 13.88 18.52 14.26"/>
    <path class="cls-1" d="m28.26,13.73c-.42-.07-1.21-.06-2.37.02l-1.74.12.07.93h5.31c-.06-.15-.13-.28-.21-.38-.29-.39-.64-.62-1.06-.69Z"/>
    <path class="cls-1" d="m34.27,13.21c-.42-.15-.88-.21-1.38-.18-.53.04-.99.17-1.38.39s-.69.52-.9.9c-.09.15-.14.31-.2.48h5.31c-.09-.3-.22-.58-.42-.83-.27-.35-.61-.6-1.03-.75Z"/>
    <path class="cls-1" d="m39.39,12.8l-3.18.22.12,1.77h3.47c-.14-.75-.28-1.43-.41-1.99Z"/>
    <polygon class="cls-1" points="40.59 12.71 40.5 14.79 43.96 14.79 43.8 12.49 40.59 12.71"/>
    <path class="cls-1" d="m49.19,12.79c-.2-.21-.48-.35-.85-.44-.37-.09-.89-.11-1.56-.07l-2.48.17.16,2.34h2.47l-.05-.73c.32-.02.53.02.64.12.1.09.16.31.19.61h2.07c-.04-.54-.1-.96-.18-1.23-.09-.31-.23-.56-.42-.77Z"/>
    <path class="cls-1" d="m52.3,14.25c-.02-.27,0-.47.07-.61.07-.14.17-.21.32-.22.14,0,.24.03.3.13.07.09.11.32.14.68l.04.57h2.3l-.03-.37c-.06-.83-.17-1.41-.34-1.74-.17-.33-.49-.6-.95-.8-.47-.2-1.02-.27-1.66-.23-.58.04-1.08.18-1.47.42-.4.24-.68.55-.84.93-.16.38-.21.97-.16,1.77,0,0,0,.01,0,.02h2.37c-.04-.15-.08-.32-.1-.54Z"/>
  </g>
  <g>
    <polygon class="cls-1" points="18.25 12.65 18.33 13.18 23.72 12.8 23.59 11.9 18.25 12.65"/>
    <path class="cls-1" d="m27.93,11.44c-.42-.04-1.21.02-2.36.18l-1.73.24.13.92,5.3-.37c-.07-.14-.15-.27-.24-.37-.31-.37-.68-.57-1.1-.61Z"/>
    <path class="cls-1" d="m33.89,10.51c-.43-.12-.89-.15-1.39-.08-.53.07-.98.24-1.35.48s-.65.57-.83.96c-.07.16-.12.32-.16.49l5.3-.37c-.11-.29-.26-.56-.48-.8-.29-.33-.65-.55-1.08-.68Z"/>
    <path class="cls-1" d="m38.96,9.74l-3.16.44.25,1.76,3.46-.24c-.2-.74-.38-1.4-.55-1.96Z"/>
    <polygon class="cls-1" points="40.16 9.57 40.21 11.65 43.66 11.41 43.34 9.12 40.16 9.57"/>
    <path class="cls-1" d="m48.75,9.05c-.21-.19-.5-.32-.88-.38-.37-.06-.89-.05-1.56.04l-2.46.35.33,2.32,2.47-.17-.1-.72c.32-.04.53-.02.65.07.11.08.18.29.23.6l2.07-.14c-.08-.54-.17-.95-.27-1.22-.11-.3-.27-.55-.48-.74Z"/>
    <path class="cls-1" d="m51.95,10.29c-.04-.27-.03-.47.03-.62.06-.14.16-.22.31-.24.14-.02.24.02.31.11.07.09.13.31.18.67l.08.56,2.29-.16-.05-.36c-.12-.82-.27-1.39-.46-1.72-.19-.32-.53-.56-1.01-.73-.48-.16-1.03-.2-1.67-.11-.58.08-1.06.25-1.44.52-.38.26-.64.59-.77.98-.13.39-.14.98-.03,1.77,0,0,0,.01,0,.02l2.36-.17c-.05-.14-.1-.31-.13-.53Z"/>
  </g>
  <g>
    <polygon class="cls-1" points="17.95 11.2 18.06 11.73 23.42 10.97 23.23 10.08 17.95 11.2"/>
    <path class="cls-1" d="m27.52,9.32c-.42-.01-1.2.1-2.34.35l-1.71.36.19.91,5.26-.74c-.08-.14-.17-.25-.26-.35-.34-.34-.72-.52-1.14-.53Z"/>
    <path class="cls-1" d="m33.4,7.97c-.43-.09-.9-.09-1.4.02-.52.11-.96.3-1.32.58s-.61.61-.76,1.01c-.06.16-.1.33-.13.5l5.26-.74c-.13-.28-.3-.54-.53-.76-.32-.31-.69-.51-1.13-.6Z"/>
    <path class="cls-1" d="m38.41,6.85l-3.12.66.37,1.74,3.43-.48c-.25-.73-.48-1.37-.68-1.92Z"/>
    <polygon class="cls-1" points="39.59 6.6 39.79 8.67 43.21 8.19 42.73 5.93 39.59 6.6"/>
    <path class="cls-1" d="m48.12,5.48c-.22-.18-.52-.28-.9-.32-.38-.04-.89.01-1.55.15l-2.43.52.49,2.29,2.45-.34-.15-.72c.31-.07.53-.06.65.03.11.08.2.28.27.58l2.05-.29c-.12-.53-.24-.94-.35-1.2-.13-.29-.3-.53-.53-.7Z"/>
    <path class="cls-1" d="m51.4,6.5c-.06-.26-.06-.47-.01-.62.05-.15.14-.23.29-.27.13-.03.24,0,.32.08.08.08.15.3.23.66l.12.55,2.27-.32-.08-.36c-.17-.81-.37-1.37-.58-1.68-.22-.31-.57-.53-1.06-.66-.49-.13-1.05-.13-1.67,0-.57.12-1.04.33-1.4.62-.36.29-.59.63-.7,1.03-.1.4-.07.99.09,1.77,0,0,0,.01,0,.02l2.35-.33c-.06-.14-.12-.31-.17-.52Z"/>
  </g>
  <g>
    <polygon class="cls-1" points="17.6 9.77 17.74 10.29 23.03 9.17 22.78 8.29 17.6 9.77"/>
    <path class="cls-1" d="m27.01,7.23c-.42.02-1.19.19-2.31.51l-1.68.48.26.9,5.2-1.1c-.09-.13-.19-.24-.29-.33-.36-.32-.75-.47-1.18-.45Z"/>
    <path class="cls-1" d="m32.78,5.48c-.44-.06-.9-.03-1.39.11-.51.15-.94.37-1.27.67s-.56.65-.69,1.06c-.05.17-.07.34-.09.51l5.2-1.1c-.15-.27-.34-.52-.58-.72-.34-.28-.73-.46-1.16-.52Z"/>
    <path class="cls-1" d="m37.7,4.01l-3.07.88.49,1.71,3.39-.72c-.3-.71-.57-1.34-.81-1.87Z"/>
    <polygon class="cls-1" points="38.86 3.67 39.2 5.73 42.59 5.01 41.95 2.79 38.86 3.67"/>
    <path class="cls-1" d="m47.29,1.96c-.23-.16-.54-.25-.92-.26-.38-.01-.89.07-1.54.26l-2.39.68.65,2.25,2.42-.51-.2-.7c.31-.09.53-.09.65-.02.12.07.22.27.31.56l2.03-.43c-.16-.52-.3-.92-.43-1.17-.15-.28-.34-.5-.57-.66Z"/>
    <path class="cls-1" d="m50.64,2.75c-.07-.26-.09-.46-.06-.61.04-.15.13-.24.27-.28.13-.04.24-.02.32.06.08.08.18.29.27.64l.16.54,2.25-.48-.1-.35c-.23-.8-.46-1.34-.7-1.63-.24-.29-.6-.49-1.1-.58-.5-.09-1.05-.05-1.67.12-.56.16-1.02.4-1.36.71-.34.31-.55.67-.63,1.08-.08.41,0,.99.22,1.76,0,0,0,.01,0,.02l2.32-.49c-.07-.14-.14-.3-.21-.51Z"/>
  </g>
  <path class="cls-1" d="m57.8,17.92c-.24.24-.53.36-.87.36s-.63-.12-.86-.36c-.24-.24-.35-.53-.35-.87s.12-.62.36-.86.52-.36.86-.36.63.12.87.36.36.53.36.86-.12.63-.36.87Zm-1.61-1.61c-.2.21-.31.45-.31.74s.1.54.3.75c.2.21.45.31.74.31s.54-.1.74-.31.31-.46.31-.75-.1-.54-.31-.74c-.21-.21-.45-.31-.74-.31s-.54.1-.74.31Zm.72.07c.17,0,.29.02.37.05.14.06.21.17.21.34,0,.12-.04.21-.13.27-.05.03-.11.05-.19.06.1.02.18.06.23.13.05.07.07.14.07.21v.1s0,.06,0,.1c0,.04,0,.06.01.07v.02s-.21,0-.21,0h0s0-.02,0-.03v-.04s0-.11,0-.11c0-.15-.04-.26-.13-.31-.05-.03-.14-.04-.26-.04h-.19v.53h-.24v-1.34h.47Zm.26.21c-.06-.03-.16-.05-.29-.05h-.2v.49h.21c.1,0,.18,0,.23-.03.09-.04.14-.11.14-.21,0-.1-.03-.16-.09-.2Z"/>
</svg>