<?xml version="1.0" encoding="utf-8"?>
<!-- Generator: Adobe Illustrator 27.8.0, SVG Export Plug-In . SVG Version: 6.00 Build 0)  -->
<svg version="1.1" id="Layer_1" xmlns="http://www.w3.org/2000/svg" xmlns:xlink="http://www.w3.org/1999/xlink" x="0px" y="0px"
	 viewBox="0 0 56.7 56.7" style="enable-background:new 0 0 56.7 56.7;" xml:space="preserve">
<style type="text/css">
	.st0{fill:none;}
	.st1{fill:#404040;}
</style>
<rect x="44.1" y="6.3" class="st0" width="6.3" height="6.3"/>
<rect x="6.3" y="6.3" class="st0" width="6.3" height="6.3"/>
<rect x="6.3" y="44.1" class="st0" width="6.3" height="6.3"/>
<path class="st1" d="M12.6,18.9h6.3V0H0v18.9H12.6z M6.3,6.3h6.3v6.3H6.3V6.3z"/>
<path class="st1" d="M50.4,18.9h6.3V0H37.8v18.9H50.4z M44.1,6.3h6.3v6.3h-6.3V6.3z"/>
<path class="st1" d="M6.3,37.8H0v18.9h18.9V37.8C18.9,37.8,6.3,37.8,6.3,37.8z M12.6,50.4H6.3v-6.3h6.3V50.4z"/>
<rect x="25.2" y="0" class="st1" width="6.3" height="12.6"/>
<rect y="25.2" class="st1" width="6.3" height="6.3"/>
<polygon class="st1" points="25.2,18.9 25.2,25.2 12.6,25.2 12.6,31.5 25.2,31.5 31.5,31.5 31.5,18.9 "/>
<rect x="25.2" y="50.4" class="st1" width="6.3" height="6.3"/>
<polygon class="st1" points="44.1,37.8 50.4,37.8 50.4,31.5 56.7,31.5 56.7,25.2 44.1,25.2 37.8,25.2 37.8,31.5 44.1,31.5 "/>
<polygon class="st1" points="50.4,56.7 56.7,56.7 56.7,44.1 50.4,44.1 50.4,50.4 44.1,50.4 44.1,56.7 "/>
<rect x="31.5" y="44.1" class="st1" width="12.6" height="6.3"/>
<rect x="25.2" y="37.8" class="st1" width="6.3" height="6.3"/>
<rect x="31.5" y="31.5" class="st1" width="6.3" height="6.3"/>
</svg>
